<svg xmlns="http://www.w3.org/2000/svg" xmlns:xlink="http://www.w3.org/1999/xlink" width="500" zoomAndPan="magnify" viewBox="0 0 375 374.999991" height="500" preserveAspectRatio="xMidYMid meet" version="1.0"><defs><clipPath id="74e76c7ee2"><path d="M 94.550781 13.539062 L 280.550781 13.539062 L 280.550781 240.789062 L 94.550781 240.789062 Z M 94.550781 13.539062 " clip-rule="nonzero"/></clipPath><clipPath id="ced33a7745"><path d="M 19.324219 194.25 L 355.324219 194.25 L 355.324219 363 L 19.324219 363 Z M 19.324219 194.25 " clip-rule="nonzero"/></clipPath></defs><g clip-path="url(#74e76c7ee2)"><path fill="#000000" d="M 275.320312 13.539062 L 239.179688 13.539062 C 236.324219 13.539062 234.019531 15.851562 234.019531 18.703125 L 234.019531 158.152344 L 233.144531 158.152344 L 137.109375 15.71875 C 136.144531 14.351562 134.308594 13.539062 132.628906 13.539062 L 99.78125 13.539062 C 96.925781 13.539062 94.621094 15.851562 94.621094 18.703125 L 94.621094 235.625 C 94.621094 238.476562 96.925781 240.789062 99.78125 240.789062 L 135.921875 240.789062 C 138.777344 240.789062 141.085938 238.476562 141.085938 235.625 L 141.085938 96.175781 L 141.957031 96.175781 L 237.992188 238.609375 C 238.960938 239.976562 240.945312 240.789062 242.621094 240.789062 L 275.320312 240.789062 C 278.175781 240.789062 280.484375 238.476562 280.484375 235.625 L 280.484375 18.703125 C 280.484375 15.851562 278.175781 13.539062 275.320312 13.539062 Z M 275.320312 13.539062 " fill-opacity="1" fill-rule="nonzero"/></g><g clip-path="url(#ced33a7745)"><path fill="#231f20" d="M 19.425781 194.277344 L 63.984375 194.277344 C 63.984375 262.246094 119.3125 317.542969 187.324219 317.542969 C 255.332031 317.542969 310.667969 262.246094 310.667969 194.277344 L 355.226562 194.277344 C 355.226562 245.457031 332.449219 293.140625 291.695312 325.769531 C 267.265625 345.316406 237.707031 357.5625 206.601562 361.003906 C 154.683594 366.75 104.820312 349.125 68.601562 312.921875 C 36.890625 281.226562 19.425781 239.089844 19.425781 194.277344 Z M 19.425781 194.277344 " fill-opacity="1" fill-rule="nonzero"/></g></svg>